<?xml version="1.0" encoding="iso-8859-1"?>
<!-- Generator: Adobe Illustrator 19.0.0, SVG Export Plug-In . SVG Version: 6.00 Build 0)  -->
<svg version="1.1" id="Capa_1" xmlns="http://www.w3.org/2000/svg" xmlns:xlink="http://www.w3.org/1999/xlink" x="0px" y="0px"
	 viewBox="0 0 486.248 486.248" style="enable-background:new 0 0 486.248 486.248;" xml:space="preserve">
<g>
	<g>
		<path d="M357.58,288.08c4.206-2.92,8.779-5.274,13.6-7c9.783-2.86,18.353-8.863,24.384-17.08c4.051-9.249,4.95-19.573,2.56-29.384
			c-1.145-5.67-1.286-11.497-0.416-17.216c2.046-5.146,4.975-9.895,8.656-14.032c7.165-7.459,11.653-17.084,12.76-27.368
			c-1.102-10.288-5.587-19.919-12.752-27.384c-3.685-4.139-6.617-8.89-8.664-14.04c-0.87-5.719-0.729-11.546,0.416-17.216
			c2.384-9.803,1.484-20.117-2.56-29.36c-6.046-8.227-14.636-14.231-24.44-17.08c-5.393-1.79-10.427-4.517-14.872-8.056
			c-3.534-4.444-6.259-9.475-8.048-14.864c-2.849-9.804-8.853-18.394-17.08-24.44c-9.249-4.054-19.574-4.953-29.384-2.56
			c-5.67,1.149-11.497,1.29-17.216,0.416c-5.135-2.036-9.875-4.952-14.008-8.616c-7.46-7.185-17.095-11.687-27.392-12.8
			c-10.288,1.102-19.919,5.587-27.384,12.752c-4.139,3.685-8.891,6.617-14.04,8.664c-5.719,0.874-11.546,0.733-17.216-0.416
			c-9.803-2.388-20.119-1.489-29.36,2.56c-8.227,6.046-14.231,14.636-17.08,24.44c-1.79,5.393-4.517,10.427-8.056,14.872
			c-4.444,3.534-9.475,6.259-14.864,8.048C105.32,73.769,96.73,79.773,90.684,88c-4.051,9.249-4.95,19.573-2.56,29.384
			c1.145,5.67,1.286,11.497,0.416,17.216c-2.036,5.135-4.952,9.875-8.616,14.008c-7.185,7.46-11.687,17.095-12.8,27.392
			c1.102,10.288,5.587,19.919,12.752,27.384c3.685,4.139,6.617,8.891,8.664,14.04c0.87,5.719,0.729,11.546-0.416,17.216
			c-2.384,9.803-1.484,20.117,2.56,29.36c6.046,8.227,14.636,14.231,24.44,17.08c4.822,1.723,9.396,4.077,13.6,7L38.212,438.648
			l61.152-9.368l22.232,56.968L211.692,336.2c1.328,0.968,2.664,1.992,4,3.04c7.476,7.178,17.126,11.667,27.432,12.76
			c10.288-1.102,19.919-5.587,27.384-12.752c1.376-1.056,2.72-2.08,4.048-3.056l90.096,150.056l22.232-56.968l61.152,9.368
			L357.58,288.08z M124.652,450.072L109.58,411.52l-40.128,6.152l68.472-113.928l0.12,0.272c2.853,9.798,8.856,18.382,17.08,24.424
			c9.249,4.051,19.573,4.95,29.384,2.56c4.056-0.622,8.152-0.951,12.256-0.984L124.652,450.072z M260.756,326.568
			c-4.842,4.782-10.966,8.059-17.632,9.432c-6.675-1.371-12.806-4.653-17.648-9.448c-5.741-5.053-12.416-8.934-19.648-11.424
			c-3.185-0.815-6.464-1.208-9.752-1.168c-4.554,0.102-9.096,0.495-13.6,1.176c-6.373,1.65-13.082,1.461-19.352-0.544
			c-4.951-4.475-8.523-10.27-10.296-16.704c-2.496-7.376-6.413-14.192-11.528-20.064c-5.868-5.114-12.682-9.028-20.056-11.52
			c-6.436-1.773-12.232-5.348-16.704-10.304c-2.005-6.259-2.197-12.957-0.552-19.32c1.516-7.724,1.516-15.668,0-23.392
			c-2.489-7.236-6.373-13.914-11.432-19.656c-4.782-4.842-8.059-10.966-9.432-17.632c1.371-6.675,4.653-12.806,9.448-17.648
			c5.053-5.741,8.934-12.416,11.424-19.648c1.516-7.724,1.516-15.668,0-23.392c-1.644-6.359-1.458-13.054,0.536-19.312
			c4.475-4.951,10.27-8.523,16.704-10.296c7.376-2.496,14.192-6.413,20.064-11.528c5.114-5.868,9.028-12.682,11.52-20.056
			c1.773-6.436,5.348-12.232,10.304-16.704c6.258-2.009,12.958-2.201,19.32-0.552c7.724,1.512,15.668,1.512,23.392,0
			c7.247-2.483,13.936-6.365,19.688-11.424c4.832-4.78,10.945-8.059,17.6-9.44c6.675,1.371,12.806,4.653,17.648,9.448
			c5.741,5.053,12.416,8.934,19.648,11.424c7.724,1.508,15.668,1.508,23.392,0c6.359-1.648,13.054-1.462,19.312,0.536
			c4.951,4.475,8.523,10.27,10.296,16.704c2.496,7.376,6.413,14.192,11.528,20.064c5.868,5.114,12.682,9.028,20.056,11.52
			c6.436,1.773,12.232,5.348,16.704,10.304c2.005,6.259,2.197,12.957,0.552,19.32c-1.516,7.724-1.516,15.668,0,23.392
			c2.483,7.247,6.365,13.936,11.424,19.688c4.78,4.832,8.059,10.945,9.44,17.6c-1.371,6.675-4.653,12.806-9.448,17.648
			c-5.053,5.741-8.934,12.416-11.424,19.648c-1.516,7.724-1.516,15.668,0,23.392c1.644,6.359,1.458,13.054-0.536,19.312
			c-4.475,4.951-10.27,8.523-16.704,10.296c-7.376,2.497-14.192,6.413-20.064,11.528c-5.114,5.868-9.028,12.682-11.52,20.056
			c-1.773,6.436-5.348,12.232-10.304,16.704c-6.259,2.005-12.957,2.196-19.32,0.552c-7.724-1.516-15.668-1.516-23.392,0
			C273.176,317.625,266.498,321.509,260.756,326.568z M376.644,411.52l-15.048,38.552l-72.072-120.056
			c4.104,0.033,8.2,0.362,12.256,0.984c9.798,2.381,20.106,1.481,29.344-2.56c8.227-6.046,14.231-14.636,17.08-24.44l0.12-0.272
			l68.448,113.928L376.644,411.52z"/>
	</g>
</g>
<g>
	<g>
		<g>
			<path d="M186.86,87.144c1.422,0.004,2.819-0.372,4.048-1.088c6.279-3.652,12.923-6.636,19.824-8.904
				c0.064-0.02,0.127-0.041,0.19-0.062c4.18-1.431,6.409-5.98,4.978-10.16s-5.98-6.409-10.16-4.978
				c-7.965,2.614-15.634,6.057-22.88,10.272c-2.463,1.429-3.981,4.059-3.986,6.906C178.866,83.548,182.442,87.136,186.86,87.144z"/>
			<path d="M274.924,76.936c6.913,2.225,13.571,5.175,19.864,8.8c1.216,0.702,2.596,1.069,4,1.064l-0.024,0.016
				c2.869,0.005,5.52-1.526,6.95-4.014c2.202-3.831,0.881-8.721-2.95-10.922c-7.274-4.17-14.964-7.57-22.944-10.144
				c-3.91-0.996-7.949,1.075-9.422,4.831C268.784,70.68,270.811,75.323,274.924,76.936z"/>
			<path d="M152.34,118.4c2.568,0.004,4.981-1.225,6.488-3.304c4.261-5.888,9.124-11.314,14.512-16.192
				c0.01-0.009,0.02-0.018,0.03-0.027c3.267-2.975,3.503-8.035,0.528-11.301s-8.035-3.503-11.301-0.528
				c-6.209,5.624-11.815,11.879-16.728,18.664c-0.984,1.361-1.515,2.998-1.518,4.678C144.345,114.808,147.922,118.394,152.34,118.4z
				"/>
			<path d="M338.004,133.336c2.983,6.619,5.26,13.535,6.792,20.632c0.794,3.68,4.047,6.308,7.812,6.312
				c0.572-0.002,1.142-0.064,1.701-0.184c4.315-0.934,7.058-5.188,6.128-9.504c-1.773-8.196-4.401-16.184-7.84-23.832
				c-1.816-4.029-6.555-5.824-10.584-4.008C337.982,124.568,336.188,129.307,338.004,133.336z"/>
			<path d="M312.46,98.464c5.414,4.847,10.31,10.244,14.608,16.104c1.503,2.047,3.89,3.256,6.428,3.262
				c1.691-0.005,3.338-0.545,4.702-1.545c3.564-2.611,4.337-7.617,1.725-11.181c-4.944-6.75-10.574-12.97-16.8-18.56
				c-0.106-0.101-0.216-0.198-0.327-0.293c-3.372-2.854-8.42-2.434-11.275,0.938C308.667,90.562,309.088,95.61,312.46,98.464z"/>
			<polygon points="352.612,160.28 352.607,160.28 352.604,160.28 			"/>
			<path d="M131.868,160.784c0.54,0.111,1.089,0.167,1.64,0.168h0.016c3.778-0.01,7.034-2.662,7.808-6.36
				c1.49-7.104,3.721-14.033,6.656-20.672c0.029-0.064,0.058-0.128,0.086-0.193c1.738-4.062-0.145-8.764-4.207-10.502
				c-4.062-1.738-8.764,0.145-10.502,4.207c-3.395,7.671-5.974,15.678-7.696,23.888c0,0,0,0,0,0
				C124.767,155.646,127.543,159.883,131.868,160.784z"/>
			<path d="M333.524,117.832c-0.009,0-0.018-0.002-0.028-0.002c-0.007,0-0.013,0.002-0.02,0.002H333.524z"/>
			<path d="M262.484,65.368c0.442-4.396-2.764-8.318-7.16-8.76c-8.333-0.825-16.728-0.798-25.056,0.08
				c-4.029,0.442-7.091,3.827-7.128,7.88c-0.04,4.418,3.509,8.032,7.928,8.072c0.307,0.002,0.615-0.014,0.92-0.048
				c7.224-0.761,14.507-0.783,21.736-0.064C258.12,72.97,262.042,69.764,262.484,65.368z"/>
			<path d="M348.74,214.232c-4.036-1.8-8.768,0.012-10.568,4.048c-2.96,6.637-6.607,12.946-10.88,18.824
				c-0.992,1.365-1.528,3.009-1.529,4.697c-0.004,4.418,3.575,8.003,7.993,8.007c2.565,0.001,4.974-1.228,6.48-3.304
				c4.929-6.778,9.136-14.052,12.552-21.704C354.588,220.764,352.776,216.032,348.74,214.232z"/>
			<path d="M312.836,253.28c-5.404,4.869-11.303,9.159-17.6,12.8c-2.463,1.429-3.981,4.059-3.986,6.906
				c-0.008,4.418,3.568,8.006,7.986,8.014l-0.032-0.024c1.433,0.026,2.846-0.339,4.088-1.056c7.251-4.2,14.043-9.147,20.264-14.76
				c3.281-2.96,3.54-8.019,0.58-11.3S316.117,250.32,312.836,253.28z"/>
			<path d="M133.588,207.52c0.565,0.001,1.128-0.059,1.681-0.177c4.321-0.923,7.075-5.175,6.151-9.495
				c-1.514-7.101-2.283-14.34-2.296-21.6c0-4.418-3.582-8-8-8s-8,3.582-8,8c0.012,8.376,0.9,16.728,2.648,24.92
				c0.785,3.691,4.042,6.332,7.816,6.336V207.52z"/>
			<path d="M275.372,274.936c-6.903,2.244-14.022,3.759-21.24,4.52c-4.029,0.442-7.091,3.827-7.128,7.88
				c-0.04,4.418,3.509,8.032,7.928,8.072l0-0.024c0.272,0,0.552-0.016,0.864-0.032c8.336-0.876,16.557-2.624,24.528-5.216
				c0.212-0.06,0.422-0.128,0.629-0.205c4.141-1.541,6.248-6.147,4.707-10.288C284.119,275.502,279.513,273.395,275.372,274.936z"/>
			<path d="M363.122,175.382c-0.106-4.311-3.687-7.72-7.998-7.614c-4.461,0.113-8.014,3.77-8,8.232
				c-0.001,7.266-0.754,14.513-2.248,21.624c0,0,0,0,0,0.001c-0.912,4.323,1.853,8.567,6.176,9.479
				c0.545,0.111,1.1,0.167,1.656,0.168h0.016c3.773-0.009,7.027-2.653,7.808-6.344c1.725-8.197,2.593-16.551,2.592-24.928v-0.464
				C363.124,175.484,363.123,175.433,363.122,175.382z"/>
			<path d="M232.38,279.472c-7.225-0.744-14.352-2.243-21.264-4.472c-0.27-0.104-0.546-0.193-0.826-0.267
				c-4.271-1.131-8.65,1.415-9.781,5.687s1.415,8.65,5.687,9.781c7.981,2.574,16.21,4.303,24.552,5.16
				c0.266,0.031,0.533,0.047,0.8,0.048l0.032,0.064c4.418,0.221,8.179-3.182,8.4-7.6
				C240.201,283.454,236.798,279.693,232.38,279.472z"/>
			<path d="M159.076,237.256c-4.284-5.863-7.941-12.159-10.912-18.784c-1.835-3.87-6.392-5.609-10.339-3.944
				c-4.071,1.717-5.979,6.41-4.261,10.48c3.426,7.649,7.643,14.918,12.584,21.688c1.509,2.065,3.914,3.284,6.472,3.28
				c1.696-0.001,3.348-0.54,4.717-1.541C160.904,245.828,161.683,240.823,159.076,237.256z"/>
			<path d="M191.236,266.216c-6.295-3.644-12.193-7.934-17.6-12.8c-0.061-0.056-0.122-0.112-0.185-0.166
				c-3.333-2.9-8.386-2.55-11.287,0.783c-2.9,3.333-2.55,8.386,0.783,11.287c6.235,5.596,13.034,10.529,20.288,14.72
				c1.215,0.705,2.595,1.075,4,1.072v0.032c2.858,0,5.499-1.525,6.928-4C196.373,273.318,195.062,268.425,191.236,266.216z"/>
		</g>
	</g>
</g>
<g>
</g>
<g>
</g>
<g>
</g>
<g>
</g>
<g>
</g>
<g>
</g>
<g>
</g>
<g>
</g>
<g>
</g>
<g>
</g>
<g>
</g>
<g>
</g>
<g>
</g>
<g>
</g>
<g>
</g>
</svg>
