<svg height="392pt" viewBox="0 0 392.52486 392" width="392pt" xmlns="http://www.w3.org/2000/svg"><path d="m299.199219 285.363281c27.976562-31.300781 43.429687-71.820312 43.402343-113.800781 0-94.5-76.902343-171.300781-171.300781-171.300781-94.5 0-171.300781 76.902343-171.300781 171.300781s76.898438 171.300781 171.300781 171.300781c41.980469.03125 82.5-15.421875 113.800781-43.402343l90.296876 90.300781c1.878906 1.890625 4.441406 2.9375 7.101562 2.902343 2.652344-.011718 5.199219-1.050781 7.101562-2.902343 1.871094-1.867188 2.921876-4.402344 2.921876-7.050781 0-2.644532-1.050782-5.179688-2.921876-7.046876zm-279.300781-113.800781c0-83.398438 67.902343-151.300781 151.300781-151.300781 83.402343 0 151.300781 67.902343 151.300781 151.300781s-67.898438 151.300781-151.300781 151.300781c-83.398438 0-151.300781-67.902343-151.300781-151.300781zm0 0"/></svg>